<svg height="512" viewBox="0 0 58 58" width="512" xmlns="http://www.w3.org/2000/svg"><g id="Page-1" fill="none" fill-rule="evenodd"><g id="038---Cutomer-Satisfaction" transform="translate(0 -1)"><path id="Path" d="m39 11c.1260798 1.6009333-.6436055 3.1403038-2 4h-16c-1.2505617-1.3692257-1.9612856-3.1460354-2-5 0-4 3-5 3-5 1.4329617-2.50643214 4.1131087-4.03794466 7-4 1.8403601-.04743436 3.6700756.29329479 5.37 1-.7336093.43779492-1.318875 1.08576761-1.68 1.86 0 0 6.31 1.14 6.31 7.14z" fill="#cb8252"/><path id="Path" d="m35 33c-1.089845.9343034-2.4141514 1.5532351-3.83 1.79h-4.34c-1.4158486-.2367649-2.740155-.8556966-3.83-1.79 1.0216875-1.8500843 1.4575787-3.9667719 1.25-6.07h9.5c-.2075787 2.1032281.2283125 4.2199157 1.25 6.07z" fill="#f9c795"/><path id="Path" d="m50 43.91v1.23l-3.99 9.86h-34.02l-3.99-9.86v-1.23c.00264351-4.0748867 2.7428262-7.6395854 6.68-8.69l8.32-2.22c1.089845.9343034 2.4141514 1.5532351 3.83 1.79h4.34c1.4158486-.2367649 2.740155-.8556966 3.83-1.79l8.32 2.22c3.9371738 1.0504146 6.6773565 4.6151133 6.68 8.69z" fill="#3b97d3"/><g fill="#f0c419"><path id="Path" d="m30.806 34.088 3 5.892c.1512746.2906906.4342963.4898126.759.534l6.708.944c.7484552.0844473 1.3800911.5951112 1.619433 1.3092765s.0429853 1.5023186-.503433 2.0207235l-4.854 4.586c-.2358752.2208336-.3445372.5456917-.289.864l1.146 6.475c.1116779.7480902-.2082258 1.495182-.8266913 1.9306258-.6184656.4354437-1.4296715.4847336-2.0963087.1273742l-6-3.057c-.2949138-.1490065-.6430862-.1490065-.938 0l-6 3.057c-.6666372.3573594-1.4778431.3080695-2.0963087-.1273742-.6184655-.4354438-.9383692-1.1825356-.8266913-1.9306258l1.146-6.475c.0555372-.3183083-.0531248-.6431664-.289-.864l-4.854-4.586c-.5464183-.5184049-.7427749-1.3065582-.503433-2.0207235s.8709778-1.2248292 1.619433-1.3092765l6.708-.944c.3247037-.0441874.6077254-.2433094.759-.534l3-5.892c.353929-.6692459 1.0489294-1.0879016 1.806-1.0879016s1.452071.4186557 1.806 1.0879016z"/><path id="Path" d="m8.43 45.586 1.6 3.172c.0799175.156335.2310931.2638376.405.288l3.577.508c.4018348.0478172.7400387.3231275.8683915.7069025.1283529.383775.0238251.8071561-.2683915 1.0870975l-2.589 2.469c-.1263712.1192028-.1845753.2938151-.155.465l.611 3.487c.0620966.3999249-.1069808.8006269-.4367983 1.0351826-.3298174.2345557-.763816.2627421-1.1212017.0728174l-3.2-1.646c-.15683418-.0809629-.34316582-.0809629-.5 0l-3.2 1.646c-.35750971.1896643-.79143517.1613935-1.12131342-.0730549-.32987825-.2344485-.49925404-.6349511-.43768658-1.0349451l.611-3.487c.02945779-.1709854-.02830487-.3453986-.154-.465l-2.593-2.469c-.29221659-.2799414-.39674436-.7033225-.26839151-1.0870975.12835286-.383775.46655666-.6590853.86839151-.7069025l3.574-.508c.17218332-.0253657.32133162-.1327525.4-.288l1.6-3.172c.18588034-.361654.55837353-.5890161.965-.5890161s.77911966.2273621.965.5890161z"/><path id="Path" d="m51.5 45.586 1.6 3.172c.0786684.1552475.2278167.2626343.4.288l3.578.508c.4009646.0494526.7376029.325392.8647825.7088545s.02216.8058826-.2697825 1.0851455l-2.589 2.469c-.1256951.1196014-.1834578.2940146-.154.465l.611 3.487c.0615675.399994-.1078083.8004966-.4376866 1.0349451-.3298782.2344484-.7638037.2627192-1.1213134.0730549l-3.2-1.646c-.1568342-.0809629-.3431658-.0809629-.5 0l-3.2 1.646c-.3573857.1899247-.7913843.1617383-1.1212017-.0728174-.3298175-.2345557-.4988949-.6352577-.4367983-1.0351826l.611-3.487c.0295753-.1711849-.0286288-.3457972-.155-.465l-2.589-2.469c-.2922166-.2799414-.3967444-.7033225-.2683915-1.0870975.1283528-.383775.4665567-.6590853.8683915-.7069025l3.577-.508c.1739069-.0241624.3250825-.131665.405-.288l1.6-3.172c.1864291-.360047.55805-.5861085.9635-.5861085s.7770709.2260615.9635.5861085z"/></g><path id="Path" d="m40 18c0 1.6568542-1.3431458 3-3 3v1.72c-.0024292.8344452-.3498955 1.6307222-.96 2.2-1.3292134 1.2459766-2.7317144 2.4113882-4.2 3.49-.5155666.3808124-1.1390471.5874717-1.78.59h-2.12c-.6409529-.0025283-1.2644334-.2091876-1.78-.59-1.4682856-1.0786118-2.8707866-2.2440234-4.2-3.49-.6101045-.5692778-.9575708-1.3655548-.96-2.2v-1.72c-1.6568542 0-3-1.3431458-3-3s1.3431458-3 3-3v-1s0-4 3-4 3 2 8 2h2.93c.8494047-.0046205 1.6150786.5111183 1.93 1.3.0857502.2237854.1330827.460448.14.7v1c1.6568542 0 3 1.3431458 3 3z" fill="#fdd7ad"/></g></g></svg>