<svg id="Capa_1" enable-background="new 0 0 512 512" height="512" viewBox="0 0 512 512" width="512" xmlns="http://www.w3.org/2000/svg"><g><path d="m512 82.778v414.219c0 8.282-6.722 15.004-15.004 15.004h-481.992c-8.282-.001-15.004-6.722-15.004-15.005v-414.218c0-8.282 6.722-15.004 15.004-15.004h481.993c8.281 0 15.003 6.721 15.003 15.004z" fill="#97bcfc"/><path d="m512 82.778v414.219c0 8.282-6.722 15.004-15.004 15.004h-240.996v-444.227h240.996c8.282 0 15.004 6.721 15.004 15.004z" fill="#7fa6fb"/><path d="m481.873 45.131-37.589 391.624c0 8.282-6.782 7.532-15.064 7.532l-158.217 34.388-15.003 3.26h-15.004l-195.866-.06c-8.282 0-15.004-6.721-15.004-15.004v-421.74c0-8.282 6.722-15.004 15.004-15.004h195.866l15.004 3.081 15.004-3.081h195.866c8.281 0 15.003 6.722 15.003 15.004z" fill="#eef4ff"/><path d="m481.873 45.131v421.741c0 8.282-6.722 15.004-15.004 15.004l-195.866.06h-15.003v-448.728l15.004-3.081h195.866c8.281 0 15.003 6.722 15.003 15.004z" fill="#d9e6fc"/><path d="m240.996 30.127h30.007v451.808h-30.007z" fill="#d9e6fc"/><path d="m256 30.127h15.004v451.808h-15.004z" fill="#bed9fd"/><path d="m195.751 120.402h-90.374c-8.286 0-15.004-6.717-15.004-15.004s6.717-15.004 15.004-15.004h90.374c8.286 0 15.004 6.717 15.004 15.004s-6.718 15.004-15.004 15.004z" fill="#66cc7a"/><path d="m203.282 180.671h-97.905c-8.286 0-15.004-6.717-15.004-15.004 0-8.286 6.717-15.004 15.004-15.004h97.905c8.286 0 15.004 6.717 15.004 15.004-.001 8.287-6.718 15.004-15.004 15.004z" fill="#66cc7a"/><path d="m406.624 376.502h-60.264c-8.286 0-15.004-6.717-15.004-15.004s6.717-15.004 15.004-15.004h60.264c8.286 0 15.004 6.717 15.004 15.004s-6.718 15.004-15.004 15.004z" fill="#dc455b"/><path d="m406.624 150.686-60.247-.003c-.001 0-.001 0-.002 0-3.978 0-7.794 1.58-10.608 4.394-2.814 2.813-4.396 6.63-4.396 10.609l-.005 135.565c0 3.979 1.58 7.796 4.394 10.61s6.63 4.395 10.609 4.395h60.254c8.286 0 15.004-6.717 15.004-15.004v-135.562c0-8.286-6.717-15.004-15.003-15.004z" fill="#51b375"/><path d="m180.644 256.059c-.001-8.285-6.718-15.002-15.004-15.002h-60.265c-3.979 0-7.795 1.58-10.609 4.395-2.814 2.813-4.395 6.63-4.395 10.609v105.437c0 8.286 6.717 15.004 15.004 15.004h60.279c3.979 0 7.796-1.581 10.61-4.396 2.814-2.814 4.394-6.63 4.394-10.61z" fill="#e27a4e"/><path d="m346.43 105.39c0 49.81-40.51 90.34-90.31 90.37h-.12c-49.8-.03-90.31-40.56-90.31-90.37 0-49.82 40.51-90.36 90.31-90.39h.12c49.8.03 90.31 40.57 90.31 90.39z" fill="#eef4ff"/><path d="m346.43 105.39c0 49.81-40.51 90.34-90.31 90.37h-.12v-180.76h.12c49.8.03 90.31 40.57 90.31 90.39z" fill="#d9e6fc"/><path d="m256.12 0h-.12c-58.07.03-105.31 47.3-105.31 105.39 0 58.08 47.24 105.34 105.31 105.37h.12c58.08-.03 105.32-47.29 105.32-105.37 0-58.09-47.24-105.36-105.32-105.39zm0 180.75h-.12c-41.53-.03-75.31-33.82-75.31-75.36s33.78-75.35 75.31-75.38h.12c41.53.03 75.31 33.84 75.31 75.38s-33.78 75.33-75.31 75.36z" fill="#e27a4e"/><path d="m361.44 105.39c0 58.08-47.24 105.34-105.32 105.37h-.12v-30.01h.12c41.53-.03 75.31-33.82 75.31-75.36s-33.78-75.35-75.31-75.38h-.12v-30.01h.12c58.08.03 105.32 47.3 105.32 105.39z" fill="#dc455b"/><path d="m301.19 105.39c0 8.28-6.72 15-15 15h-30.19c-8.26-.03-14.94-6.74-14.94-15v-30.13c0-8.26 6.68-14.98 14.94-15.01h.12c8.25.03 14.95 6.75 14.95 15.01v15.12h15.12c8.28 0 15 6.71 15 15.01z" fill="#e27a4e"/><path d="m301.19 105.39c0 8.28-6.72 15-15 15h-30.19v-60.14h.12c8.25.03 14.95 6.75 14.95 15.01v15.12h15.12c8.28 0 15 6.71 15 15.01z" fill="#dc455b"/></g></svg>