<svg id="Capa_1" enable-background="new 0 0 512 512" height="512" viewBox="0 0 512 512" width="512" xmlns="http://www.w3.org/2000/svg"><g><g><path d="m455.32 80v282l-18.417 55.763-61.583 21.167s-49.13-.27-104.32-.56c-53.44-.29-112.56-.61-138.31-.75-9.88-.05-17.47-20.09-22.03-20.12v-397.5l22.03-20h242.63l57.39 21.69z" fill="#6356aa"/></g><path d="m455.32 80v282l-18.417 55.763-61.583 21.167s-49.13-.27-104.32-.56v-438.37h104.32l57.39 21.69z" fill="#4a3d8e"/><path d="m455.32 15v65h-65c-8.28 0-15-6.72-15-15v-65h65c8.28 0 15 6.72 15 15z" fill="#bc5ee2"/><path d="m455.32 362v60l-24.34 17.24-55.66-.31v-61.93c0-8.28 6.72-15 15-15z" fill="#bc5ee2"/><g><path d="m376.36 208.78-43.18 42.09 10.2 59.42c1.82 10.68-9.39 18.85-19.01 13.82l-53.37-28.06-53.37 28.06c-9.61 5.03-20.84-3.13-19.01-13.82l10.2-59.42-43.18-42.09c-7.75-7.56-3.47-20.79 7.26-22.34l59.66-8.68 26.69-54.06c2.4-4.86 7.07-7.29 11.75-7.29 4.67 0 9.35 2.43 11.75 7.29l26.69 54.06 59.66 8.68c10.72 1.55 15.02 14.77 7.26 22.34z" fill="#ffe164"/></g><path d="m71.68 0c-8.28 0-15 6.72-15 15v75l.01 272v105.77s37.46-32.81 39.12-30.35c8.904.052 2.327.016 36.88.2v-437.62c-6.338 0-53.964 0-61.01 0z" fill="#e178f5"/><path d="m324.37 324.11-53.37-28.06v-179.64c4.67 0 9.35 2.43 11.75 7.29l26.69 54.06 59.66 8.68c10.72 1.55 15.02 14.77 7.26 22.34l-43.18 42.09 10.2 59.42c1.82 10.68-9.39 18.85-19.01 13.82z" fill="#fabe2c"/><g><path d="m438.633 452v30l-36.253 19.56h-315.45l-20.18-38.51 29.06-25.63h331.33z" fill="#fff7e6"/><path d="m438.633 452v30l-36.253 19.56h-131.38v-64.14h156.14z" fill="#ffeacc"/></g><g><path d="m294.728 482h-193.048c-8.52 0-15.41-7.15-14.98-15.76.4-8.05 7.35-14.24 15.42-14.24h192.609v-30h-192.249c-24.74 0-45.47 19.88-45.79 44.43v1.34c.41 24.46 20.44 44.23 44.99 44.23h193.049v-30z" fill="#4a3d8e"/></g><g fill="#3e3377"><path d="m455.32 422v15c0 8.284-6.716 15-15 15h-169.32v-30z"/><path d="m271 482h169.32c8.284 0 15 6.716 15 15 0 8.284-6.716 15-15 15h-169.32z"/></g></g></svg>